<svg width="19" height="11" viewBox="0 0 19 11" fill="none" xmlns="http://www.w3.org/2000/svg">
<path fill-rule="evenodd" clip-rule="evenodd" d="M12.5848 0.678689C12.6516 0.611754 12.7309 0.558649 12.8182 0.522414C12.9055 0.48618 12.9992 0.467529 13.0937 0.467529C13.1882 0.467529 13.2818 0.48618 13.3692 0.522414C13.4565 0.558649 13.5358 0.611754 13.6026 0.678689L17.9151 4.99119C17.982 5.05796 18.0351 5.13727 18.0713 5.22459C18.1076 5.31191 18.1262 5.40552 18.1262 5.50007C18.1262 5.59461 18.1076 5.68822 18.0713 5.77554C18.0351 5.86286 17.982 5.94217 17.9151 6.00894L13.6026 10.3214C13.4676 10.4564 13.2846 10.5322 13.0937 10.5322C12.9028 10.5322 12.7198 10.4564 12.5848 10.3214C12.4499 10.1865 12.374 10.0034 12.374 9.81257C12.374 9.6217 12.4499 9.43865 12.5848 9.30369L16.3899 5.50007L12.5848 1.69644C12.5179 1.62967 12.4648 1.55036 12.4285 1.46304C12.3923 1.37572 12.3737 1.2821 12.3737 1.18756C12.3737 1.09302 12.3923 0.999412 12.4285 0.912091C12.4648 0.824769 12.5179 0.745454 12.5848 0.678689Z" fill="#A89365"/>
<path fill-rule="evenodd" clip-rule="evenodd" d="M0.875 5.5C0.875 5.30938 0.950725 5.12656 1.08552 4.99177C1.22031 4.85698 1.40313 4.78125 1.59375 4.78125H16.6875C16.8781 4.78125 17.0609 4.85698 17.1957 4.99177C17.3305 5.12656 17.4062 5.30938 17.4062 5.5C17.4062 5.69062 17.3305 5.87344 17.1957 6.00823C17.0609 6.14303 16.8781 6.21875 16.6875 6.21875H1.59375C1.40313 6.21875 1.22031 6.14303 1.08552 6.00823C0.950725 5.87344 0.875 5.69062 0.875 5.5Z" fill="#A89365"/>
</svg>
